<svg width="53" height="50" viewBox="0 0 53 50" fill="none" xmlns="http://www.w3.org/2000/svg">
<g clip-path="url(#clip0_4518_27896)">
<path d="M26.0163 50C40.3846 50 52.0325 38.8071 52.0325 25C52.0325 11.1929 40.3846 0 26.0163 0C11.6479 0 0 11.1929 0 25C0 38.8071 11.6479 50 26.0163 50Z" fill="#424242"/>
<path d="M28.8201 49.8551C40.0025 48.7034 49.0635 40.744 51.4278 30.3745L34.6527 14.2546C34.6527 14.2546 20.9285 13.8901 15.9712 21.7251L23.2764 28.7627L16.7712 38.3495L28.8201 49.8551Z" fill="#232323"/>
<path d="M36.8371 38.3493H16.7711V31.8406L29.6581 22.4653C31.2922 21.2765 30.8984 19.6187 30.7389 19.139C30.5851 18.6769 29.9306 17.1644 27.9639 17.1092C27.9201 17.108 27.8429 17.1073 27.812 17.1071H25.5334C22.1768 17.1071 21.916 20.6416 21.916 21.7249H15.9712C15.9712 15.6425 19.9033 11.3945 25.5334 11.3945L27.8457 11.3946C27.8457 11.3946 28.04 11.3963 28.1367 11.3989C31.9808 11.5068 35.2246 13.8622 36.4015 17.3994C37.5933 20.9822 36.3549 24.7584 33.2465 27.0198L25.5258 32.6367H36.8372V38.3493H36.8371Z" fill="#F8FFFB"/>
<path d="M33.2463 27.0198L26.4098 31.9937V24.8284L29.6578 22.4655C31.2917 21.2768 30.8981 19.619 30.7391 19.1395C30.5854 18.6766 29.9304 17.1646 27.9635 17.1096C27.9194 17.1086 27.8426 17.1076 27.8118 17.1076H26.4097V11.395H27.8456C27.8456 11.395 28.0393 11.397 28.1367 11.3989C31.9803 11.5072 35.2243 13.8622 36.401 17.4001C37.5931 20.9822 36.355 24.7585 33.2463 27.0198V27.0198Z" fill="#D8D8D8"/>
<path d="M26.4106 32.6367H36.8377V38.3493H26.4106V32.6367Z" fill="#D8D8D8"/>
</g>
<defs>
<clipPath id="clip0_4518_27896">
<rect width="52.0325" height="50" fill="white"/>
</clipPath>
</defs>
</svg>
