<svg width="53" height="50" viewBox="0 0 53 50" fill="none" xmlns="http://www.w3.org/2000/svg">
<g clip-path="url(#clip0_4787_46951)">
<path d="M25.8698 50C40.2382 50 51.886 38.8071 51.886 25C51.886 11.1929 40.2382 0 25.8698 0C11.5014 0 -0.146484 11.1929 -0.146484 25C-0.146484 38.8071 11.5014 50 25.8698 50Z" fill="#424242"/>
<path d="M28.6736 49.8553C39.856 48.7037 48.917 40.7443 51.2813 30.3748L34.5062 14.2548C34.5062 14.2548 20.782 13.8904 15.8247 21.7253L23.1299 28.7629L16.6247 38.3498L28.6736 49.8553Z" fill="#232323"/>
<path d="M36.6906 38.3496H16.6246V31.8409L29.5116 22.4656C31.1457 21.2767 30.7519 19.619 30.5924 19.1392C30.4386 18.6771 29.7841 17.1646 27.8174 17.1094C27.7736 17.1083 27.6964 17.1076 27.6656 17.1074H25.3869C22.0303 17.1074 21.7695 20.6418 21.7695 21.7251H15.8247C15.8247 15.6427 19.7568 11.3948 25.3869 11.3948L27.6992 11.3949C27.6992 11.3949 27.8935 11.3965 27.9902 11.3992C31.8343 11.5071 35.0781 13.8625 36.255 17.3997C37.4468 20.9825 36.2084 24.7586 33.1 27.0201L25.3793 32.637H36.6907V38.3496H36.6906Z" fill="#F8FFFB"/>
<path d="M33.0998 27.0198L26.2633 31.9937V24.8284L29.5114 22.4655C31.1452 21.2768 30.7516 19.619 30.5927 19.1395C30.4389 18.6766 29.7839 17.1646 27.817 17.1096C27.7729 17.1086 27.6961 17.1076 27.6653 17.1076H26.2632V11.395H27.6992C27.6992 11.395 27.8929 11.397 27.9902 11.3989C31.8338 11.5072 35.0778 13.8622 36.2546 17.4001C37.4466 20.9822 36.2085 24.7585 33.0998 27.0198V27.0198Z" fill="#D8D8D8"/>
<path d="M26.2642 32.6367H36.6912V38.3493H26.2642V32.6367Z" fill="#D8D8D8"/>
</g>
<defs>
<clipPath id="clip0_4787_46951">
<rect width="52.0325" height="50" fill="white"/>
</clipPath>
</defs>
</svg>
