<svg width="53" height="50" viewBox="0 0 53 50" fill="none" xmlns="http://www.w3.org/2000/svg">
<g clip-path="url(#clip0_4518_27932)">
<path d="M26.0163 50C40.3846 50 52.0325 38.8071 52.0325 25C52.0325 11.1929 40.3846 0 26.0163 0C11.6479 0 0 11.1929 0 25C0 38.8071 11.6479 50 26.0163 50Z" fill="#07E5CA"/>
<path d="M26.2358 33.4376L22.8363 30.5402L19.134 35.4599L33.2474 49.0207C41.9959 46.5931 48.8482 39.8724 51.1748 31.3859L33.2329 14.145L16.8152 18.4879L24.0232 25.3994L23.6548 26.9751L29.3168 32.2368C29.3168 32.2367 27.3714 33.6394 26.2358 33.4376V33.4376Z" fill="#00B59B"/>
<path d="M33.2327 14.1448C31.6024 12.3988 28.8793 11.3564 25.9485 11.3564C25.3546 11.3564 24.7588 11.4089 24.178 11.5123L23.999 11.544C22.2157 11.8606 20.6001 12.6483 19.3267 13.8218C18.0791 14.9724 17.2455 16.4175 16.9162 18.0008L16.8149 18.4876L22.836 18.9254L22.9584 18.6213C23.3074 17.7551 24.1487 17.106 25.1539 16.9273L25.3328 16.8956C26.4684 16.694 27.6346 17.0621 28.3768 17.857C29.3611 18.9106 29.2628 20.6033 28.1621 21.5534C27.629 22.0138 25.0046 22.5453 24.1316 22.5104L23.6547 22.4907V26.9749L24.1316 26.9553C25.0104 26.9198 27.6292 27.452 28.1622 27.9122C29.2628 28.8623 29.3611 30.555 28.3767 31.6087C27.6346 32.4035 26.4683 32.7717 25.3327 32.57L25.154 32.5383C24.1487 32.3597 23.3074 31.7105 22.9584 30.8443L22.836 30.5402L16.8149 30.978L16.9162 31.4648C17.2454 33.0481 18.079 34.4933 19.3268 35.6439C20.6 36.8174 22.2157 37.605 23.999 37.9216L24.1778 37.9533C24.7588 38.0567 25.3546 38.1092 25.9485 38.1092C28.8793 38.1092 31.6023 37.0668 33.2326 35.3209C35.9798 32.3793 35.8503 27.806 32.9982 24.7328C35.8503 21.6597 35.9799 17.0863 33.2327 14.1448V14.1448Z" fill="#F8FFFB"/>
<path d="M32.9981 24.7324C35.8507 27.8057 35.9798 32.3789 33.2328 35.3213C31.6149 37.0527 28.9218 38.0928 26.0164 38.1084V32.623C26.9188 32.6064 27.7847 32.2441 28.3771 31.6084C29.3609 30.5547 29.2633 28.8623 28.1627 27.9121C27.868 27.6582 26.9381 27.3818 26.0164 27.1914V22.2734C26.9381 22.083 27.868 21.8076 28.1627 21.5537C29.2633 20.6035 29.3609 18.9111 28.3771 17.8574C27.7847 17.2217 26.9188 16.8594 26.0164 16.8428V11.3574C28.9218 11.373 31.6149 12.4121 33.2328 14.1445C35.9798 17.0859 35.8507 21.6592 32.9981 24.7324Z" fill="#D8D8D8"/>
</g>
<defs>
<clipPath id="clip0_4518_27932">
<rect width="52.0325" height="50" fill="white"/>
</clipPath>
</defs>
</svg>
