<svg width="53" height="50" viewBox="0 0 53 50" fill="none" xmlns="http://www.w3.org/2000/svg">
<g clip-path="url(#clip0_4518_27882)">
<path d="M26.0163 50C40.3846 50 52.0325 38.8071 52.0325 25C52.0325 11.1929 40.3846 0 26.0163 0C11.6479 0 0 11.1929 0 25C0 38.8071 11.6479 50 26.0163 50Z" fill="#424242"/>
<path d="M51.7111 28.9324L33.7266 11.6504L15.5945 31.6436L33.5791 48.9257C42.9917 46.1817 50.146 38.4507 51.7111 28.9324V28.9324Z" fill="#232323"/>
<path d="M33.7266 25.9795V11.6504H26.0721L15.5945 26.0947V31.6436H27.8323V38.3496H33.7266V31.6436H37.4939V25.9795H33.7266ZM27.8323 25.9795H22.8628L27.8323 19.1299V25.9795Z" fill="#F8FFFB"/>
<path d="M33.7267 25.9795V11.6504H26.0723L26.0164 11.7275V21.6328L27.8324 19.1299V25.9795H26.0164V31.6436H27.8324V38.3496H33.7267V31.6436H37.494V25.9795H33.7267Z" fill="#D8D8D8"/>
</g>
<defs>
<clipPath id="clip0_4518_27882">
<rect width="52.0325" height="50" fill="white"/>
</clipPath>
</defs>
</svg>
