<svg width="190" height="190" viewBox="0 0 190 190" fill="none" xmlns="http://www.w3.org/2000/svg">
<g filter="url(#filter0_d_4518_27765)">
<rect x="70" y="45" width="50" height="50" rx="5" fill="white"/>
</g>
<path d="M77.3438 55L79.8282 81.256L95.0156 85L110.203 81.256L112.687 55H77.3438Z" fill="#FF7816"/>
<path d="M112.687 55L110.203 81.256L95.0156 85V55H112.687Z" fill="#FF4B00"/>
<path d="M106.055 62.9688H88.6875L89.1093 67.3633H105.633L104.625 78.0038L95.0156 80.4121L85.4062 78.0038L85.0782 74.4531H89.7657L89.8594 75.4199L95.0156 76.703L100.172 75.4199L100.594 70.8789H84.7266L83.6484 59.4531H106.383L106.055 62.9688Z" fill="#ECECF1"/>
<path d="M105.633 67.3633L104.625 78.0038L95.0156 80.4121V76.703L100.172 75.4199L100.594 70.8789H95.0156V67.3633H105.633Z" fill="#E2E2E7"/>
<path d="M106.383 59.4531L106.055 62.9688H95.0156V59.4531H106.383Z" fill="#E2E2E7"/>
<defs>
<filter id="filter0_d_4518_27765" x="0" y="0" width="190" height="190" filterUnits="userSpaceOnUse" color-interpolation-filters="sRGB">
<feFlood flood-opacity="0" result="BackgroundImageFix"/>
<feColorMatrix in="SourceAlpha" type="matrix" values="0 0 0 0 0 0 0 0 0 0 0 0 0 0 0 0 0 0 127 0" result="hardAlpha"/>
<feOffset dy="25"/>
<feGaussianBlur stdDeviation="35"/>
<feColorMatrix type="matrix" values="0 0 0 0 0.0392157 0 0 0 0 0.0117647 0 0 0 0 0.235294 0 0 0 0.15 0"/>
<feBlend mode="normal" in2="BackgroundImageFix" result="effect1_dropShadow_4518_27765"/>
<feBlend mode="normal" in="SourceGraphic" in2="effect1_dropShadow_4518_27765" result="shape"/>
</filter>
</defs>
</svg>
