<svg width="191" height="190" viewBox="0 0 191 190" fill="none" xmlns="http://www.w3.org/2000/svg">
<g filter="url(#filter0_d_4518_27774)">
<rect x="70.6665" y="45" width="50" height="50" rx="5" fill="white"/>
</g>
<g clip-path="url(#clip0_4518_27774)">
<g clip-path="url(#clip1_4518_27774)">
<path d="M95.802 60.5588C93.9537 61.5337 91.8589 62.6387 90.7365 64.4669C88.7869 67.6565 94.7257 71.1356 94.9795 71.2822C95.0385 71.3162 95.1091 71.3332 95.1795 71.3332C95.2543 71.3332 95.3291 71.3141 95.3899 71.2758C95.5078 71.2019 95.5412 71.0763 95.4705 70.974C95.449 70.9429 93.3173 67.8374 93.3965 65.6096C93.4245 64.8336 94.8724 63.9534 96.4052 63.0214C97.8091 62.1678 99.4006 61.2004 100.332 60.0686C102.376 57.5775 100.104 55.1279 100.081 55.1034C99.9904 55.0083 99.8238 54.9739 99.6814 55.0208C99.5392 55.0679 99.4603 55.1832 99.4928 55.2973C99.4974 55.3136 99.9392 56.9334 98.7099 58.6024C98.2034 59.292 97.0906 59.879 95.802 60.5588Z" fill="#DB380E"/>
<path d="M103.589 61.6577C103.719 61.584 103.758 61.4497 103.679 61.3424C103.6 61.2352 103.428 61.1879 103.275 61.2314C102.961 61.3209 95.5864 63.453 95.5864 66.0291C95.5864 67.8049 96.5978 68.743 97.3364 69.4281C97.626 69.6968 97.8761 69.9288 97.9586 70.1269C98.1906 70.6978 97.6409 71.7296 97.4097 72.0791C97.3431 72.1795 97.3757 72.3013 97.4891 72.3746C97.5503 72.4143 97.6268 72.4345 97.7034 72.4345C97.7686 72.4345 97.834 72.4199 97.8906 72.3904C98.0174 72.3243 100.99 70.7482 100.457 68.8494C100.258 68.1276 99.785 67.6003 99.3678 67.1349C98.7214 66.4139 98.2545 65.8931 98.9628 64.9313C99.7926 63.8093 103.551 61.679 103.589 61.6577Z" fill="#DB380E"/>
<path d="M84.3923 72.4752C84.2659 72.7591 84.3256 73.0407 84.5647 73.2899C85.3642 74.1223 88.196 74.5806 92.5388 74.5806C92.539 74.5806 92.5392 74.5806 92.5394 74.5806C93.1278 74.5806 93.749 74.5719 94.3854 74.5548C101.329 74.3684 103.904 72.7461 104.01 72.6771C104.126 72.602 104.157 72.4768 104.085 72.3756C104.013 72.2744 103.858 72.2235 103.709 72.2541C101.264 72.7549 96.6979 72.9327 93.5307 72.9327C89.9867 72.9327 88.1818 72.7412 87.74 72.5998C87.9667 72.3663 89.3651 71.9493 91.098 71.6937C91.2636 71.6693 91.3775 71.5546 91.3611 71.4286C91.3447 71.3026 91.2036 71.2065 91.0347 71.2065C90.019 71.2065 84.9248 71.2677 84.3923 72.4752Z" fill="#73A1FB"/>
<path d="M107.626 70.8042C106.194 70.8042 104.836 71.3426 104.779 71.3654C104.646 71.4186 104.579 71.5325 104.615 71.6419C104.652 71.7512 104.783 71.828 104.933 71.8281C104.964 71.8281 107.988 71.8467 108.262 73.1427C108.505 74.2608 105.4 76.0724 104.184 76.6762C104.052 76.7414 104.001 76.8674 104.062 76.9764C104.114 77.0691 104.235 77.1271 104.364 77.1271C104.387 77.1271 104.41 77.1254 104.433 77.1217C104.722 77.0754 111.496 75.9558 110.78 72.9977C110.343 71.1848 108.823 70.8042 107.626 70.8042Z" fill="#73A1FB"/>
<path d="M102.98 76.3144C103.004 76.2197 102.952 76.1233 102.846 76.0679L101.222 75.2146C101.143 75.173 101.043 75.1599 100.95 75.1784C100.933 75.1816 99.2342 75.5166 96.7681 75.7219C95.7894 75.8042 94.6931 75.8477 93.5976 75.8477C91.1322 75.8477 89.5201 75.6305 89.2854 75.4711C89.2543 75.4263 89.2641 75.406 89.2697 75.3947C89.3123 75.3057 89.5409 75.2 89.6883 75.1582C89.851 75.113 89.9387 74.9805 89.8881 74.856C89.8376 74.7314 89.6665 74.6581 89.4975 74.6885C87.8682 74.9834 87.0714 75.3958 87.1294 75.9142C87.2324 76.8333 90.0708 77.305 92.4705 77.4297C92.8155 77.4474 93.1887 77.4564 93.5794 77.4564C93.5797 77.4564 93.5798 77.4564 93.5801 77.4564C97.5702 77.4564 102.686 76.5174 102.737 76.5078C102.862 76.485 102.957 76.4093 102.98 76.3144Z" fill="#73A1FB"/>
<path d="M90.7346 78.2867C90.8577 78.2267 90.9122 78.1127 90.8685 78.0076C90.825 77.9025 90.694 77.8335 90.5468 77.835C90.3285 77.8393 88.4102 77.9042 88.2759 78.8202C88.2352 79.094 88.3398 79.3441 88.5867 79.5636C89.2755 80.1758 91.1347 80.5396 94.2696 80.6759C94.6405 80.6926 95.0172 80.701 95.3895 80.701C99.3751 80.701 102.059 79.7651 102.172 79.7252C102.281 79.6866 102.353 79.6062 102.359 79.516C102.365 79.4258 102.305 79.3402 102.202 79.293L100.15 78.3531C100.078 78.3206 99.9933 78.3098 99.912 78.3223C99.899 78.3243 98.5957 78.527 96.6287 78.7273C96.2565 78.7653 95.7904 78.7846 95.2436 78.7846C93.2787 78.7846 91.0932 78.5438 90.6741 78.3861C90.668 78.3567 90.6757 78.3193 90.7346 78.2867Z" fill="#73A1FB"/>
<path d="M93.532 83.5268C102.661 83.521 107.561 82.3033 108.505 81.5371C108.839 81.2661 108.875 81.0094 108.847 80.8418C108.777 80.4293 108.276 80.1767 108.219 80.1493C108.082 80.0832 107.898 80.1005 107.791 80.193C107.684 80.2854 107.682 80.4205 107.789 80.5129C107.847 80.5685 107.88 80.6615 107.711 80.7879C107.334 81.0522 103.528 81.8545 97.1914 82.0956C96.3234 82.1294 95.4129 82.1466 94.4855 82.1467C88.8118 82.1467 84.6595 81.5638 84.1144 81.2242C84.3245 80.9978 85.7933 80.6361 87.3552 80.4315C87.5312 80.4085 87.6501 80.2841 87.6229 80.1517C87.5956 80.0193 87.4329 79.9282 87.255 79.9455C87.2109 79.95 87.0614 79.9567 86.8883 79.9646C84.3111 80.0826 81.3329 80.3457 81.1775 81.3416C81.1303 81.645 81.2505 81.9205 81.535 82.1603C82.231 82.7468 84.2315 83.5267 93.5317 83.5267C93.5319 83.5268 93.5319 83.5268 93.532 83.5268Z" fill="#73A1FB"/>
<path d="M110.298 81.7527C110.169 81.708 110.017 81.7306 109.92 81.8085C109.907 81.8194 108.534 82.8958 104.408 83.5279C102.828 83.7653 99.862 83.8857 95.593 83.8857C91.316 83.8857 87.2462 83.7595 87.2057 83.7582C87.0357 83.752 86.8903 83.8447 86.8671 83.9702C86.8439 84.0956 86.9518 84.2139 87.1159 84.2432C87.1582 84.2507 91.4233 85.0001 97.2549 85.0001C100.052 85.0001 102.774 84.8298 105.345 84.4935C110.138 83.8632 110.474 82.0805 110.486 82.0049C110.503 81.8992 110.427 81.7975 110.298 81.7527Z" fill="#73A1FB"/>
</g>
</g>
<defs>
<filter id="filter0_d_4518_27774" x="0.666504" y="0" width="190" height="190" filterUnits="userSpaceOnUse" color-interpolation-filters="sRGB">
<feFlood flood-opacity="0" result="BackgroundImageFix"/>
<feColorMatrix in="SourceAlpha" type="matrix" values="0 0 0 0 0 0 0 0 0 0 0 0 0 0 0 0 0 0 127 0" result="hardAlpha"/>
<feOffset dy="25"/>
<feGaussianBlur stdDeviation="35"/>
<feColorMatrix type="matrix" values="0 0 0 0 0.0392157 0 0 0 0 0.0117647 0 0 0 0 0.235294 0 0 0 0.15 0"/>
<feBlend mode="normal" in2="BackgroundImageFix" result="effect1_dropShadow_4518_27774"/>
<feBlend mode="normal" in="SourceGraphic" in2="effect1_dropShadow_4518_27774" result="shape"/>
</filter>
<clipPath id="clip0_4518_27774">
<rect width="40" height="30" fill="white" transform="translate(76 55)"/>
</clipPath>
<clipPath id="clip1_4518_27774">
<rect width="40" height="30" fill="white" transform="translate(76 55)"/>
</clipPath>
</defs>
</svg>
