<svg width="190" height="190" viewBox="0 0 190 190" fill="none" xmlns="http://www.w3.org/2000/svg">
<g filter="url(#filter0_d_4518_27788)">
<rect x="70" y="45" width="50" height="50" rx="5" fill="white"/>
</g>
<g clip-path="url(#clip0_4518_27788)">
<path d="M94.802 60.5588C92.9537 61.5337 90.8589 62.6387 89.7365 64.4669C87.7869 67.6565 93.7257 71.1356 93.9795 71.2822C94.0385 71.3162 94.1091 71.3332 94.1795 71.3332C94.2543 71.3332 94.3291 71.3141 94.3899 71.2758C94.5078 71.2019 94.5412 71.0763 94.4705 70.974C94.449 70.9429 92.3173 67.8374 92.3965 65.6096C92.4245 64.8336 93.8724 63.9534 95.4052 63.0214C96.8091 62.1678 98.4006 61.2004 99.3317 60.0686C101.376 57.5775 99.1038 55.1279 99.0806 55.1034C98.9904 55.0083 98.8238 54.9739 98.6814 55.0208C98.5392 55.0679 98.4603 55.1832 98.4928 55.2973C98.4974 55.3136 98.9392 56.9334 97.7099 58.6024C97.2034 59.292 96.0906 59.879 94.802 60.5588Z" fill="#DB380E"/>
<path d="M102.589 61.6577C102.719 61.584 102.758 61.4497 102.679 61.3424C102.6 61.2352 102.428 61.1879 102.275 61.2314C101.961 61.3209 94.5864 63.453 94.5864 66.0291C94.5864 67.8049 95.5978 68.743 96.3364 69.4281C96.626 69.6968 96.8761 69.9288 96.9586 70.1269C97.1906 70.6978 96.6409 71.7296 96.4097 72.0791C96.3431 72.1795 96.3757 72.3013 96.4891 72.3746C96.5503 72.4143 96.6268 72.4345 96.7034 72.4345C96.7686 72.4345 96.834 72.4199 96.8906 72.3904C97.0174 72.3243 99.9896 70.7482 99.4565 68.8494C99.2579 68.1276 98.785 67.6003 98.3678 67.1349C97.7214 66.4139 97.2545 65.8931 97.9628 64.9313C98.7926 63.8093 102.551 61.679 102.589 61.6577Z" fill="#DB380E"/>
<path d="M83.3923 72.4752C83.2659 72.7591 83.3256 73.0407 83.5647 73.2899C84.3642 74.1223 87.196 74.5806 91.5388 74.5806C91.539 74.5806 91.5392 74.5806 91.5394 74.5806C92.1278 74.5806 92.749 74.5719 93.3854 74.5548C100.329 74.3684 102.904 72.7461 103.01 72.6771C103.126 72.602 103.157 72.4768 103.085 72.3756C103.013 72.2744 102.858 72.2235 102.709 72.2541C100.264 72.7549 95.6979 72.9327 92.5307 72.9327C88.9867 72.9327 87.1818 72.7412 86.74 72.5998C86.9667 72.3663 88.3651 71.9493 90.098 71.6937C90.2636 71.6693 90.3775 71.5546 90.3611 71.4286C90.3447 71.3026 90.2036 71.2065 90.0347 71.2065C89.019 71.2065 83.9248 71.2677 83.3923 72.4752Z" fill="#73A1FB"/>
<path d="M106.626 70.8042C105.194 70.8042 103.836 71.3426 103.779 71.3654C103.646 71.4186 103.579 71.5325 103.615 71.6419C103.652 71.7512 103.783 71.828 103.933 71.8281C103.964 71.8281 106.988 71.8467 107.262 73.1427C107.505 74.2608 104.4 76.0724 103.184 76.6762C103.052 76.7414 103.001 76.8674 103.062 76.9764C103.114 77.0691 103.235 77.1271 103.364 77.1271C103.387 77.1271 103.41 77.1254 103.433 77.1217C103.722 77.0754 110.496 75.9558 109.78 72.9977C109.343 71.1848 107.823 70.8042 106.626 70.8042Z" fill="#73A1FB"/>
<path d="M101.98 76.3144C102.004 76.2197 101.952 76.1233 101.846 76.0679L100.222 75.2146C100.143 75.173 100.043 75.1599 99.9498 75.1784C99.9328 75.1816 98.2342 75.5166 95.7681 75.7219C94.7894 75.8042 93.6931 75.8477 92.5976 75.8477C90.1322 75.8477 88.5201 75.6305 88.2854 75.4711C88.2543 75.4263 88.2641 75.406 88.2697 75.3947C88.3123 75.3057 88.5409 75.2 88.6883 75.1582C88.851 75.113 88.9387 74.9805 88.8881 74.856C88.8376 74.7314 88.6665 74.6581 88.4975 74.6885C86.8682 74.9834 86.0714 75.3958 86.1294 75.9142C86.2324 76.8333 89.0708 77.305 91.4705 77.4297C91.8155 77.4474 92.1887 77.4564 92.5794 77.4564C92.5797 77.4564 92.5798 77.4564 92.5801 77.4564C96.5702 77.4564 101.686 76.5174 101.737 76.5078C101.862 76.485 101.957 76.4093 101.98 76.3144Z" fill="#73A1FB"/>
<path d="M89.7346 78.2867C89.8577 78.2267 89.9122 78.1127 89.8685 78.0076C89.825 77.9025 89.694 77.8335 89.5468 77.835C89.3285 77.8393 87.4102 77.9042 87.2759 78.8202C87.2352 79.094 87.3398 79.3441 87.5867 79.5636C88.2755 80.1758 90.1347 80.5396 93.2696 80.6759C93.6405 80.6926 94.0172 80.701 94.3895 80.701C98.3751 80.701 101.059 79.7651 101.172 79.7252C101.281 79.6866 101.353 79.6062 101.359 79.516C101.365 79.4258 101.305 79.3402 101.202 79.293L99.1497 78.3531C99.0785 78.3206 98.9933 78.3098 98.912 78.3223C98.899 78.3243 97.5957 78.527 95.6287 78.7273C95.2565 78.7653 94.7904 78.7846 94.2436 78.7846C92.2787 78.7846 90.0932 78.5438 89.6741 78.3861C89.668 78.3567 89.6757 78.3193 89.7346 78.2867Z" fill="#73A1FB"/>
<path d="M92.532 83.5268C101.661 83.521 106.561 82.3033 107.505 81.5371C107.839 81.2661 107.875 81.0094 107.847 80.8418C107.777 80.4293 107.276 80.1767 107.219 80.1493C107.082 80.0832 106.898 80.1005 106.791 80.193C106.684 80.2854 106.682 80.4205 106.789 80.5129C106.847 80.5685 106.88 80.6615 106.711 80.7879C106.334 81.0522 102.528 81.8545 96.1914 82.0956C95.3234 82.1294 94.4129 82.1466 93.4855 82.1467C87.8118 82.1467 83.6595 81.5638 83.1144 81.2242C83.3245 80.9978 84.7933 80.6361 86.3552 80.4315C86.5312 80.4085 86.6501 80.2841 86.6229 80.1517C86.5956 80.0193 86.4329 79.9282 86.255 79.9455C86.2109 79.95 86.0614 79.9567 85.8883 79.9646C83.3111 80.0826 80.3329 80.3457 80.1775 81.3416C80.1303 81.645 80.2505 81.9205 80.535 82.1603C81.231 82.7468 83.2315 83.5267 92.5317 83.5267C92.5319 83.5268 92.5319 83.5268 92.532 83.5268Z" fill="#73A1FB"/>
<path d="M109.298 81.7527C109.169 81.708 109.017 81.7306 108.92 81.8085C108.907 81.8194 107.534 82.8958 103.408 83.5279C101.828 83.7653 98.862 83.8857 94.593 83.8857C90.316 83.8857 86.2462 83.7595 86.2057 83.7582C86.0357 83.752 85.8903 83.8447 85.8671 83.9702C85.8439 84.0956 85.9518 84.2139 86.1159 84.2432C86.1582 84.2507 90.4233 85.0001 96.2549 85.0001C99.0519 85.0001 101.774 84.8298 104.345 84.4935C109.138 83.8632 109.474 82.0805 109.486 82.0049C109.503 81.8992 109.427 81.7975 109.298 81.7527Z" fill="#73A1FB"/>
</g>
<defs>
<filter id="filter0_d_4518_27788" x="0" y="0" width="190" height="190" filterUnits="userSpaceOnUse" color-interpolation-filters="sRGB">
<feFlood flood-opacity="0" result="BackgroundImageFix"/>
<feColorMatrix in="SourceAlpha" type="matrix" values="0 0 0 0 0 0 0 0 0 0 0 0 0 0 0 0 0 0 127 0" result="hardAlpha"/>
<feOffset dy="25"/>
<feGaussianBlur stdDeviation="35"/>
<feColorMatrix type="matrix" values="0 0 0 0 0.0392157 0 0 0 0 0.0117647 0 0 0 0 0.235294 0 0 0 0.15 0"/>
<feBlend mode="normal" in2="BackgroundImageFix" result="effect1_dropShadow_4518_27788"/>
<feBlend mode="normal" in="SourceGraphic" in2="effect1_dropShadow_4518_27788" result="shape"/>
</filter>
<clipPath id="clip0_4518_27788">
<rect width="40" height="30" fill="white" transform="translate(75 55)"/>
</clipPath>
</defs>
</svg>
