<svg width="50" height="50" viewBox="0 0 50 50" fill="none" xmlns="http://www.w3.org/2000/svg">
<path d="M25 49.0196C38.8071 49.0196 50 38.0462 50 24.5098C50 10.9734 38.8071 0 25 0C11.1929 0 0 10.9734 0 24.5098C0 38.0462 11.1929 49.0196 25 49.0196Z" fill="#FFB54A"/>
<path d="M33.3169 47.6288C40.9645 44.9844 46.9063 38.7973 49.0912 31.0769L28.7492 11.1338C28.7492 11.1338 20.0859 18.2475 20.4416 20.1995L24.416 24.049L23.0851 37.5977L33.3169 47.6288Z" fill="#F9880D"/>
<path d="M28.749 11.1338V37.5977H23.085V17.9649L20.4414 20.1995L16.7432 15.9936L22.1514 11.422L22.4922 11.1338H28.749Z" fill="#F8FFFB"/>
<path d="M25 11.1338H28.749V37.5977H25V11.1338Z" fill="#D8D8D8"/>
</svg>
