<svg width="33" height="30" viewBox="0 0 33 30" fill="none" xmlns="http://www.w3.org/2000/svg">
<rect x="0.614502" width="31.726" height="30" rx="5" fill="#FF6652"/>
<g clip-path="url(#clip0_4518_28269)">
<path d="M7.91602 8.12451C7.9154 8.12451 7.91471 8.12451 7.9141 8.12451C7.69805 8.12451 7.49485 8.19088 7.34141 8.31148C7.18628 8.43342 7.10083 8.59579 7.10083 8.76863V18.4271C7.10083 18.7813 7.46793 19.0702 7.91925 19.0711C9.8219 19.0747 13.0096 19.3871 15.2087 21.2005V11.0926C15.2087 10.9726 15.1697 10.8598 15.0963 10.7665C13.2914 8.47603 9.82297 8.12803 7.91602 8.12451Z" fill="white"/>
<path d="M24.5855 18.4272V8.76863C24.5855 8.59579 24.5001 8.43342 24.3449 8.31148C24.1915 8.19088 23.9881 8.12451 23.7723 8.12451C23.7716 8.12451 23.7709 8.12451 23.7703 8.12451C21.8635 8.12809 18.395 8.47609 16.5901 10.7665C16.5166 10.8599 16.4778 10.9726 16.4778 11.0927V21.2006C18.6768 19.3872 21.8645 19.0747 23.7672 19.0711C24.2184 19.0702 24.5855 18.7813 24.5855 18.4272Z" fill="white"/>
<path d="M26.4473 10.3521H25.8546V18.4273C25.8546 19.3316 24.9196 20.069 23.7702 20.0712C22.1564 20.0743 19.4954 20.3229 17.6108 21.7285C20.8702 21.0996 24.3062 21.5084 26.2643 21.86C26.5089 21.9039 26.7615 21.8586 26.9574 21.7355C27.1526 21.6128 27.2646 21.4294 27.2646 21.2325V10.9961C27.2647 10.641 26.8979 10.3521 26.4473 10.3521Z" fill="white"/>
<path d="M5.83182 18.4273V10.3521H5.23914C4.78859 10.3521 4.42188 10.641 4.42188 10.9961V21.2323C4.42188 21.4292 4.53386 21.6126 4.72906 21.7354C4.9248 21.8583 5.17723 21.9038 5.42211 21.8598C7.38029 21.5081 10.8163 21.0994 14.0755 21.7283C12.191 20.3228 9.53005 20.0742 7.91621 20.0712C6.76692 20.069 5.83182 19.3316 5.83182 18.4273Z" fill="white"/>
</g>
<defs>
<clipPath id="clip0_4518_28269">
<rect width="22.8427" height="18" fill="white" transform="translate(4.42188 6)"/>
</clipPath>
</defs>
</svg>
